<svg xmlns="http://www.w3.org/2000/svg" version="1.1" xmlns:xlink="http://www.w3.org/1999/xlink" width="512" height="512"><svg xmlns="http://www.w3.org/2000/svg" width="512" height="512" fill="none" viewBox="0 0 512 512">
  <g clip-path="url(#a)">
    <g clip-path="url(#b)">
      <path fill="#1E1E1E" d="M256 0C51.2 0 0 51.2 0 256s51.2 256 256 256 256-51.2 256-256S460.8 0 256 0Z"></path>
    </g>
    <path fill="#D9D9D9" d="M256 0c204.8 0 256 51.2 256 256s-51.2 256-256 256S0 460.8 0 256 51.2 0 256 0Zm138.667 197.333c-20.622 0-38.223 7.289-52.801 21.867C327.289 233.778 320 251.378 320 272c0 17.081 4.978 32.106 14.934 45.077 9.955 12.971 22.755 21.768 38.399 26.39V438.4c1.422 4.266 2.489 6.755 3.2 7.466l21.333 21.334c2.133 2.133 4.623 3.2 7.467 3.2 2.844 0 5.334-1.067 7.467-3.2l27.733-27.733c2.134-2.134 3.2-4.623 3.2-7.467 0-2.844-1.066-5.333-3.2-7.467l-17.066-17.066c-2.134-2.134-3.2-4.623-3.2-7.467 0-2.844 1.066-5.333 3.2-7.467l17.066-17.066c2.134-2.134 3.2-4.623 3.2-7.467 0-2.844-1.066-5.333-3.2-7.467l-19.2-19.2c13.852-5.333 25.316-14.222 34.39-26.666 9.073-12.444 13.61-26.667 13.61-42.667 0-20.622-7.289-38.222-21.866-52.8-14.578-14.578-32.178-21.867-52.8-21.867Zm-160 64a294.637 294.637 0 0 0-69.334 8.277c-22.755 5.504-45.155 13.768-67.2 24.79-10.296 5.348-18.56 13.084-24.79 23.21C67.115 327.737 64 338.845 64 350.934V368c.014 11.747 4.196 21.795 12.544 30.144 8.348 8.348 18.39 12.523 30.123 12.523h199.467c6.03.014 11.092-2.027 15.188-6.123s6.145-9.167 6.145-15.211V377.6c0-3.186-.712-6.116-2.134-8.789a19.165 19.165 0 0 0-5.866-6.677c-12.445-10.297-22.401-22.827-29.867-37.59-7.467-14.763-11.556-30.5-12.267-47.211-.014-3.897-1.173-7.182-3.477-9.855-2.304-2.674-5.412-4.189-9.323-4.544a147.014 147.014 0 0 0-14.933-1.324 402.034 402.034 0 0 0-14.933-.277Zm160-21.333c6.044 0 11.108 2.048 15.189 6.144 4.082 4.095 6.13 9.159 6.144 15.189.014 6.03-2.027 11.093-6.123 15.189s-9.166 6.145-15.21 6.145c-6.016.028-11.079-2.013-15.189-6.123-4.111-4.11-6.159-9.181-6.145-15.211.014-6.03 2.063-11.094 6.145-15.189 4.081-4.096 9.145-6.144 15.189-6.144Zm-160-170.667c-23.467 0-43.555 8.356-60.267 25.067-16.711 16.712-25.067 36.8-25.067 60.267 0 23.467 8.356 43.556 25.067 60.267C191.111 231.644 211.2 240 234.667 240c23.467 0 43.556-8.355 60.267-25.066 16.711-16.711 25.066-36.8 25.066-60.267 0-23.467-8.356-43.556-25.066-60.267-16.711-16.71-36.8-25.067-60.267-25.067Z"></path>
  </g>
  <defs>
    <clipPath id="SvgjsClipPath1011">
      <path fill="#fff" d="M0 0h512v512H0z"></path>
    </clipPath>
    <clipPath id="SvgjsClipPath1010">
      <path fill="#fff" d="M0 0h512v512H0z"></path>
    </clipPath>
  </defs>
</svg><style>@media (prefers-color-scheme: light) { :root { filter: none; } }
@media (prefers-color-scheme: dark) { :root { filter: none; } }
</style></svg>